<?xml version="1.0" encoding="UTF-8"?>
<svg width="200px" height="200px" viewBox="0 0 200 200" version="1.1" xmlns="http://www.w3.org/2000/svg" xmlns:xlink="http://www.w3.org/1999/xlink">
    <title>Self-Animating SVG Compass</title>
    <desc>A clean, animation-ready compass illustration with a self-contained SMIL animation.</desc>

    <!-- Global styles for crisp edges and clean typography -->
    <style>
        .cardinal-text {
            font-family: Arial, Helvetica, sans-serif;
            font-size: 16px;
            font-weight: bold;
            fill: #333333;
            text-anchor: middle;
            dominant-baseline: middle;
        }
    </style>

    <!-- 
        GROUP 1: COMPASS FACE (Static)
    -->
    <g id="group_compass_face">
        <circle cx="100" cy="100" r="98.5" fill="#FFFFFF" />
        <circle cx="100" cy="100" r="98.5" stroke="#333333" stroke-width="3" fill="none" />
        <circle cx="100" cy="100" r="90" stroke="#CCCCCC" stroke-width="1" fill="none" />
        <circle cx="100" cy="100" r="3" fill="#CCCCCC" />
        <g id="degree_markings" stroke="#666666" stroke-width="1">
            <line x1="100" y1="10" x2="100" y2="25" transform="rotate(30 100 100)" />
            <line x1="100" y1="10" x2="100" y2="25" transform="rotate(60 100 100)" />
            <line x1="100" y1="10" x2="100" y2="25" transform="rotate(120 100 100)" />
            <line x1="100" y1="10" x2="100" y2="25" transform="rotate(150 100 100)" />
            <line x1="100" y1="10" x2="100" y2="25" transform="rotate(210 100 100)" />
            <line x1="100" y1="10" x2="100" y2="25" transform="rotate(240 100 100)" />
            <line x1="100" y1="10" x2="100" y2="25" transform="rotate(300 100 100)" />
            <line x1="100" y1="10" x2="100" y2="25" transform="rotate(330 100 100)" />
            <line x1="100" y1="10" x2="100" y2="20" transform="rotate(10 100 100)" />
            <line x1="100" y1="10" x2="100" y2="20" transform="rotate(20 100 100)" />
            <line x1="100" y1="10" x2="100" y2="20" transform="rotate(40 100 100)" />
            <line x1="100" y1="10" x2="100" y2="20" transform="rotate(50 100 100)" />
            <line x1="100" y1="10" x2="100" y2="20" transform="rotate(70 100 100)" />
            <line x1="100" y1="10" x2="100" y2="20" transform="rotate(80 100 100)" />
            <line x1="100" y1="10" x2="100" y2="20" transform="rotate(100 100 100)" />
            <line x1="100" y1="10" x2="100" y2="20" transform="rotate(110 100 100)" />
            <line x1="100" y1="10" x2="100" y2="20" transform="rotate(130 100 100)" />
            <line x1="100" y1="10" x2="100" y2="20" transform="rotate(140 100 100)" />
            <line x1="100" y1="10" x2="100" y2="20" transform="rotate(160 100 100)" />
            <line x1="100" y1="10" x2="100" y2="20" transform="rotate(170 100 100)" />
            <line x1="100" y1="10" x2="100" y2="20" transform="rotate(190 100 100)" />
            <line x1="100" y1="10" x2="100" y2="20" transform="rotate(200 100 100)" />
            <line x1="100" y1="10" x2="100" y2="20" transform="rotate(220 100 100)" />
            <line x1="100" y1="10" x2="100" y2="20" transform="rotate(230 100 100)" />
            <line x1="100" y1="10" x2="100" y2="20" transform="rotate(250 100 100)" />
            <line x1="100" y1="10" x2="100" y2="20" transform="rotate(260 100 100)" />
            <line x1="100" y1="10" x2="100" y2="20" transform="rotate(280 100 100)" />
            <line x1="100" y1="10" x2="100" y2="20" transform="rotate(290 100 100)" />
            <line x1="100" y1="10" x2="100" y2="20" transform="rotate(310 100 100)" />
            <line x1="100" y1="10" x2="100" y2="20" transform="rotate(320 100 100)" />
            <line x1="100" y1="10" x2="100" y2="20" transform="rotate(340 100 100)" />
            <line x1="100" y1="10" x2="100" y2="20" transform="rotate(350 100 100)" />
        </g>
        <text x="100" y="28" class="cardinal-text">N</text>
        <text x="172" y="100" class="cardinal-text">E</text>
        <text x="100" y="172" class="cardinal-text">S</text>
        <text x="28" y="100" class="cardinal-text">W</text>
    </g>

    <!-- 
        GROUP 2: COMPASS NEEDLE (Animated)
        The <animateTransform> tag inside this group creates a continuous rotation.
    -->
    <g id="group_needle">
        
        <!-- SMIL Animation Definition -->
        <animateTransform 
            attributeName="transform"
            attributeType="XML"
            type="rotate"
            from="0 100 100"
            to="360 100 100"
            dur="8s"
            repeatCount="indefinite" />

        <path id="path_south_pole" d="M 100 100 L 94 100 L 100 160 L 106 100 Z" fill="#FFFFFF" stroke="#CCCCCC" stroke-width="1" />
        <path id="path_north_pole" d="M 100 100 L 106 100 L 100 40 L 94 100 Z" fill="#FF0000" />
        <circle cx="100" cy="100" r="4" fill="#333333" />
        
    </g>
</svg>